<svg width="96" height="85" viewBox="0 0 96 85" fill="none" xmlns="http://www.w3.org/2000/svg">
<path fill-rule="evenodd" clip-rule="evenodd" d="M64.0044 10.6138L64.0359 21.2023L74.5453 21.253L74.756 31.8729L85.2629 31.949L85.2884 74.3934L96 74.4115L95.9455 84.8889L74.733 85L74.5392 53.0329L64.2176 53.022L64.0868 74.3487L53.4212 74.3548L53.3582 63.6757L42.6975 63.7373L42.6066 74.3572L32.1567 74.4248L31.9701 53.0691L21.5359 53.0438L21.485 84.9372L0 84.9541L0.0678334 74.3656L10.8255 74.4115L10.8279 31.8052L21.445 31.8789L21.4572 21.166L31.9871 21.3388L32.2197 10.5293L42.6381 10.4918L42.6636 21.1854L53.4345 21.2591L53.5036 10.458L64.0044 10.6138ZM32.1797 31.8934L32.0549 42.3647L42.6866 42.4613L42.6018 31.8813L32.1797 31.8934ZM53.3195 42.3562L64.0699 42.4082L64.025 31.9103L53.3328 31.885L53.3195 42.3562Z" fill="#CB8A04"/>
<path d="M32.0234 0.00604019C32.1569 3.38417 32.0241 7.09382 31.9701 10.5003C28.4963 10.4663 24.8999 10.5577 21.4148 10.5945L21.7236 0.00241608L32.0234 0.00604019Z" fill="#CB8A04"/>
<path d="M74.5114 10.5148L64.1098 10.4749L64.283 0.0398653L74.6507 0L74.5114 10.5148Z" fill="#CB8A04"/>
</svg>
