<svg width="96" height="80" viewBox="0 0 96 80" fill="none" xmlns="http://www.w3.org/2000/svg">
<path fill-rule="evenodd" clip-rule="evenodd" d="M74.6964 0.110648L74.7849 13.3566L85.344 13.5097V0.0469875L95.9576 0.0136415L96 26.5358L85.2506 26.7374L85.247 39.7878L95.9515 39.9621L96 79.9045L85.3355 80L85.2615 53.2687L74.8165 53.2444L74.5994 66.7889L64.0841 66.7389L64.1313 79.9439L32.1475 79.997L32.0226 66.6753L64.0816 66.7374L64.0756 53.3475C53.4197 53.2657 42.7634 53.2662 32.1075 53.3444L32.0226 66.6753L21.5388 66.8177L21.4284 53.302L10.7409 53.3156L10.7094 79.8681L0 79.997L0.0715332 39.9515L10.9773 39.8772C10.9062 35.6029 10.756 30.9655 10.81 26.7268L0.0145491 26.6601L0.0885072 0.0348617H10.713L10.6754 13.2671L21.3969 13.4308L21.426 0L74.6964 0.110648ZM53.3032 39.803L74.728 39.9136L74.6479 26.7025H53.3589L53.3032 39.803ZM21.4491 39.7999L42.715 39.8878L42.6811 26.7025H21.5303L21.4491 39.7999Z" fill="#0890B2"/>
</svg>
