<svg xmlns="http://www.w3.org/2000/svg" fill="none" viewBox="0 0 96 96"><g fill="#2563eb" clip-path="url(#a)"><path d="M13.605 84.115c.143 3.8 0 7.984-.036 11.816L.134 96l.052-11.94zM95.88 95.913l-13.753-.004.073-11.84c4.533.012 9.289.093 13.8-.02z"/><path fill-rule="evenodd" d="M13.692 0c.055 7.94-.017 16.152.187 24.066l13.406.096.117-24.076 13.726.012-.167 11.777 13.88.161.138-11.938L68.531.014l.14 24.024 13.518.105.044-24.05 13.666.001.068 47.83-13.84.203.073 35.942-13.31.157-.465-12.222c-13.632.006-27.45-.089-41.064.066l-.058 11.987-13.566.064-.062-36.06L.05 48.044C.086 32.32-.18 15.758.243.105zm13.644 36.189-.062 11.7 13.993.129-.123-11.957zm27.556 11.769L68.48 48l-.087-11.922-13.303-.035z" clip-rule="evenodd"/></g><defs><clipPath id="a"><path fill="#fff" d="M0 0h96v96H0z"/></clipPath></defs></svg>