<svg width="96" height="90" viewBox="0 0 96 90" fill="none" xmlns="http://www.w3.org/2000/svg">
<path fill-rule="evenodd" clip-rule="evenodd" d="M67.1379 11.1665L67.1358 22.4021L76.8216 22.5646L76.7932 33.6825L86.3491 33.8066C86.3739 48.7143 86.2551 63.9554 86.4572 78.8361L95.9497 78.8386L96 89.8848C86.3954 89.9989 76.7898 90.0289 67.1849 89.9719L67.2887 78.7132L76.8184 78.8118L76.7845 56.2471L67.1795 56.1959L67.1718 67.4917L57.5897 67.5134L57.4521 56.1575L38.5075 56.187L38.4507 67.2997L28.7867 67.5134L28.791 56.2356L19.1237 56.2446C19.0861 63.7599 19.0858 71.2751 19.1227 78.7874L28.7648 78.8361L28.7222 89.9514L0 89.9847L0.0906753 78.7247L9.48922 78.863L9.57553 33.7465L19.1161 33.7734L19.1478 22.4738L28.838 22.4981C28.773 18.8079 28.9168 14.8806 28.9964 11.1755L38.3666 11.1844L38.3797 22.4315L57.5886 22.4866L57.5919 11.1639L67.1379 11.1665ZM28.7157 33.7849L28.6982 44.7901L38.3873 44.9399L38.3316 33.7695L28.7157 33.7849ZM57.5886 33.7964L57.5111 44.8554L67.3007 44.9091L67.186 33.767L57.5886 33.7964Z" fill="#049769"/>
<path d="M57.5897 67.5134L57.534 78.7247L38.4234 78.7874L38.4878 67.4597L57.5897 67.5134Z" fill="#049769"/>
<path d="M76.8763 0.0358352L76.7823 11.1332L67.1379 11.1665L67.3444 0L76.8763 0.0358352Z" fill="#049769"/>
<path d="M28.767 0.143341L28.6261 10.9771C25.5729 11.1032 22.2036 11.0435 19.1205 11.0705L19.2035 0.0204772L28.767 0.143341Z" fill="#049769"/>
</svg>
