<svg xmlns="http://www.w3.org/2000/svg" fill="none" viewBox="0 0 96 96"><path fill="#0284c7" d="m67.135 17.93-.007 9.994 9.68.106.021 19.87 9.545.118.09 30.05 9.496-.004.038 9.82c-6.327.04-12.808.16-19.123.1l-.036-9.938-9.686-.003.098-10.083-38.558.021.037 9.979-9.68.137.06 9.821c-6.306.117-12.788.046-19.11.054l.027-9.998 9.423.09c.17-9.922.077-20.142.103-30.086l9.56-.03.048-19.971 9.666.013c-.067-3.27.084-6.77.166-10.06l9.374.011.008 9.999 19.205.047.01-10.066zm.036 69.977-9.645.056.029-9.897 9.598-.023zM38.429 78.07l-.024 9.881-9.655-.058.213-9.852zm19.128-40.054.005 19.913c3.15-.003 6.576-.081 9.702.002l-.108-19.934zM28.745 57.9l9.632.006-.043-19.876-9.612-.026zM76.878 8.032l-.09 9.866-9.652.033.19-9.931zm-48.112.085-.147 9.643c-3.061.112-6.414.067-9.504.09l.082-9.831z"/></svg>