<svg width="96" height="80" viewBox="0 0 96 80" fill="none" xmlns="http://www.w3.org/2000/svg">
<path fill-rule="evenodd" clip-rule="evenodd" d="M63.999 11.7223L64.0703 22.9125L74.5967 23.0651L74.7783 34.2669L85.291 34.3317L85.2803 23.0442L95.9375 22.9439L95.9941 45.661L85.2881 45.7456L85.3223 68.6226L96 68.6101L95.9717 79.8662L74.75 80L74.5176 57.0833L64.2012 57.0707L64.042 68.607L53.333 68.6038L53.3535 57.1042L42.7129 57.1376L42.6533 68.5704L32.2705 68.7533L31.9189 57.077L21.5537 57.0833L21.4717 79.9091L0 79.9488L0.0566406 68.5829L10.8027 68.6289L10.7656 45.7153L0.0771484 45.7488L0.105469 22.992L10.7627 22.9522L10.6748 34.1582L21.5029 34.2554L21.4717 22.8801L31.9814 23.0735L32.1572 11.5707L42.6504 11.5059L42.6641 22.924L53.4639 23.0024L53.415 11.4913L63.999 11.7223ZM32.1631 34.4017L32.1152 45.616L42.7012 45.7122L42.6104 34.3338L32.1631 34.4017ZM53.2959 45.6004L64.0586 45.684L64.0732 34.3996L53.3643 34.3453L53.2959 45.6004Z" fill="#D97606"/>
<path d="M53.333 68.6038L53.3418 79.839C49.8868 79.9516 46.0937 79.8609 42.6104 79.8579L42.6533 68.5704L53.333 68.6038Z" fill="#D97606"/>
<path d="M31.9297 0C32.0803 3.68961 31.9725 7.67639 31.9355 11.3909L21.4404 11.577L21.7295 0.0438957L31.9297 0Z" fill="#D97606"/>
<path d="M74.4775 11.4955L64.0361 11.3387L64.377 0.0512117L74.5996 0.0209027L74.4775 11.4955Z" fill="#D97606"/>
</svg>
