<svg width="96" height="80" viewBox="0 0 96 80" fill="none" xmlns="http://www.w3.org/2000/svg">
<path d="M67.1357 9.93066L67.1289 19.9238L76.8096 20.0303L76.8301 39.9004L86.375 40.0176L86.4648 70.0674L95.9609 70.0645L95.999 79.8838C89.6716 79.9238 83.1905 80.0431 76.876 79.9844L76.8398 70.0459L67.1543 70.043L67.252 59.96L28.6943 59.9814L28.7305 69.96L19.0518 70.0967L19.1113 79.918C12.8043 80.0354 6.32239 79.9637 0 79.9717L0.0283203 69.9736L9.45117 70.0645C9.62025 60.1415 9.5281 49.9218 9.55371 39.9775L19.1133 39.9482L19.1621 19.9766L28.8281 19.9902C28.7615 16.7191 28.9122 13.2205 28.9941 9.93066L38.3682 9.94141L38.376 19.9395L57.5811 19.9873L57.5908 9.9209L67.1357 9.93066ZM67.1719 79.9072L57.5273 79.9629L57.5557 70.0664L67.1543 70.043L67.1719 79.9072ZM38.4297 70.0693L38.4062 79.9502L28.751 79.8916L28.9639 70.04L38.4297 70.0693ZM57.5576 30.0146L57.5625 49.9277C60.7135 49.9251 64.1393 49.847 67.2646 49.9297L67.1572 29.9961L57.5576 30.0146ZM28.7461 49.9004L38.3779 49.9062L38.335 30.0303L28.7227 30.0039L28.7461 49.9004ZM76.8789 0.0322266L76.7891 9.89844L67.1367 9.93066L67.3262 0L76.8789 0.0322266ZM28.7666 0.117188L28.6201 9.75977C25.5589 9.87182 22.2056 9.82657 19.1162 9.85059L19.1982 0.0185547L28.7666 0.117188Z" fill="#0284C7"/>
</svg>
