<svg xmlns="http://www.w3.org/2000/svg" fill="none" viewBox="0 0 96 96"><g fill="#4f46e4" clip-path="url(#a)"><path d="M24.107 83.962q23.963.253 47.927.132l.033 11.898L24.162 96z"/><path fill-rule="evenodd" d="M36.05.04C43.978.036 52.1-.063 60.01.066l-.163 11.742 24.144.18.092 12.095 11.84-.076L96 59.93l-11.975.01-.091 24.19-11.9-.036.003-24.046-12.082-.026.078 11.95-23.907.019-.244-12.007-11.69-.032-.085 24.01-12.03.166-.074-24.174L0 60.021l.012-36 12.009.047.123-12.117 23.901-.059zm23.919 36.057.01 11.818 24.001.136-.133-12.024zM11.975 47.892l24.04.1-.079-11.861h-23.96z" clip-rule="evenodd"/></g><defs><clipPath id="a"><path fill="#fff" d="M0 0h96v96H0z"/></clipPath></defs></svg>