<svg xmlns="http://www.w3.org/2000/svg" fill="none" viewBox="0 0 96 96"><path fill="#0c9489" d="m42.645 87.9-10.5.1-.103-11.312 10.641-.02zM85.283 87.869c-3.474.046-7.067.15-10.529.122l-.083-11.305 10.632-.01z"/><path fill="#0c9489" fill-rule="evenodd" d="m74.771 19.582 10.553-.058-.126 11.366L96 31.016 95.976 76.7l-10.616-.032-.1-11.574-10.43.02-.16 11.572-10.579.014-.061-11.527-10.65.005.082 11.474 10.586.088.032 11.221-10.693-.058.073-11.25-10.714.02-.106-11.565-10.443.025-.155 11.555-10.585.007-.068-11.508-10.595-.009-.028 11.395-10.682.077C.053 61.469-.075 46.16.062 30.992l10.786-.029-.07-11.46 10.606.078.228-11.551 10.361-.02.118 11.499 31.945.04.217-11.504L74.559 8zM53.316 31.048l.026 11.226 21.328.037-.093-11.336zm-31.802.024-.07 11.181 21.23.025-.016-11.291z" clip-rule="evenodd"/><path fill="#0c9489" d="m21.406 76.734.039 11.212c-3.52-.013-7.186.033-10.688-.052l.01-11.321z"/></svg>