<svg width="96" height="80" viewBox="0 0 96 80" fill="none" xmlns="http://www.w3.org/2000/svg">
<path d="M8.80979 79.8977L0.074201 80L0.0801516 70.1143L8.77805 70.0688L8.80979 79.8977Z" fill="#DD2726"/>
<path d="M95.9693 70.0722L95.9931 79.9727L87.3408 79.9466L87.4757 70.0563L95.9693 70.0722Z" fill="#DD2726"/>
<path fill-rule="evenodd" clip-rule="evenodd" d="M34.9372 0.0398021L34.8747 9.8152C43.647 9.90325 52.4198 9.93251 61.1925 9.9005V0.00796043L69.8359 0.0454881L69.6643 9.86069L78.5239 9.96986L78.5556 31.1753L78.6082 39.9579L87.3646 39.9375L87.4172 9.92779L95.9931 9.89822L96 59.9284L87.3924 59.9227L87.3338 69.938L78.6359 70.0881L78.626 60.0273C72.8335 60.0273 66.9318 59.9578 61.1499 60.0512L61.0914 70.0643L52.5304 70.0881L52.454 60.0159L43.6867 60.0273L43.6609 70.0426L34.9808 70.0506L34.9471 59.9898L17.6158 60.0273L17.5602 70.0643L8.77805 70.0688L8.84648 59.9261L0.0791599 59.9818C0.0768342 43.5417 -0.1254 26.357 0.125773 9.97555L8.73739 9.91642L8.82665 39.9557L17.5662 39.9829L17.589 9.83454L26.2988 9.9005L26.3167 0L34.9372 0.0398021ZM26.3454 30.0927L26.28 39.95L34.9422 40.0034L34.9362 30.0335L26.3454 30.0927ZM61.2154 30.0552L61.1519 39.9454L69.8409 39.9932L69.7734 30.0279L61.2154 30.0552Z" fill="#DD2726"/>
</svg>
