<svg width="84" height="96" viewBox="0 0 84 96" fill="none" xmlns="http://www.w3.org/2000/svg">
<path d="M72.0305 95.9359L47.886 96L47.984 84.0519L71.9856 84.0491L72.0305 95.9359Z" fill="#65A20D"/>
<path d="M36.0091 84.1515L36.0568 95.955L12.088 95.97L12.2119 84.056L36.0091 84.1515Z" fill="#65A20D"/>
<path d="M83.8365 84.0901L71.9856 84.0491L72.1109 59.8635L83.8692 59.854L83.8365 84.0901Z" fill="#65A20D"/>
<path d="M11.979 83.9045L0.0830928 84.071L0.0899037 59.9823L12.1166 59.9686L11.979 83.9045Z" fill="#65A20D"/>
<path fill-rule="evenodd" clip-rule="evenodd" d="M71.9611 11.9591L71.9992 23.955L83.9046 24.0478L84 47.9222L71.9965 48.0696L72.1109 59.8635L59.944 59.9495L59.9726 71.9454L47.9691 71.8389L47.8887 59.9208L36.1494 59.899L35.9642 71.9509L24.1337 71.9836L24.0601 60.0068L12.1166 59.9686L12.2664 48.0792L0 47.9904L0.0899037 23.9809L12.1002 24.0218C12.1354 19.9521 12.1484 15.8823 12.1356 11.8157L71.9611 11.9591ZM24.1882 47.8813L35.9996 48.0027L35.9547 23.955L24.1936 23.9318L24.1882 47.8813ZM47.9527 23.9604L47.965 47.9864L60.087 47.8867L60.0148 23.9577L47.9527 23.9604Z" fill="#65A20D"/>
<path d="M83.8338 11.8349L72.0469 11.8758C72.0246 8.03337 72.1999 3.8803 72.2894 0.0122839L83.936 0L83.8338 11.8349Z" fill="#65A20D"/>
<path d="M12.0811 0.0982712C12.0875 3.55977 11.9408 8.48233 12.1356 11.8157L0.0544871 11.8608L0.108974 0.0545951L12.0811 0.0982712Z" fill="#65A20D"/>
</svg>
