<svg width="96" height="80" viewBox="0 0 96 80" fill="none" xmlns="http://www.w3.org/2000/svg">
<path d="M42.6445 79.9001L32.1441 80L32.0423 68.6884L42.6833 68.6676L42.6445 79.9001Z" fill="#0C9489"/>
<path d="M85.2826 79.869C81.8087 79.9146 78.2163 80.0183 74.7543 79.9909L74.6707 68.6858L85.3032 68.6767L85.2826 79.869Z" fill="#0C9489"/>
<path fill-rule="evenodd" clip-rule="evenodd" d="M74.7713 11.5815L85.3238 11.5244L85.1978 22.8905L96 23.0151L95.9758 68.7001L85.3602 68.6676L85.2608 57.0939L74.8294 57.1147L74.6707 68.6858L64.0914 68.7001L64.0296 57.1731L53.3801 57.1783L53.4625 68.6521L64.0478 68.7403L64.0805 79.9611L53.3874 79.9027L53.4601 68.6521L42.7464 68.6728L42.6397 57.1082L32.1974 57.1328L32.0423 68.6884L21.457 68.6949L21.3891 57.1873L10.7942 57.1783L10.7663 68.5729L0.0840514 68.6495C0.0525056 53.469 -0.0747399 38.16 0.0622361 22.9917L10.8475 22.9632L10.7772 11.5023L21.3843 11.5815L21.6121 0.0298425L31.9732 0.0090825L32.0908 11.5088L64.0357 11.5491L64.2526 0.0454125L74.5592 0L74.7713 11.5815ZM53.3159 23.0488L53.3425 34.2748L74.6695 34.3124L74.5773 22.9761L53.3159 23.0488ZM21.514 23.0735L21.4437 34.254L42.6736 34.2787L42.6579 22.9878L21.514 23.0735Z" fill="#0C9489"/>
<path d="M21.4061 68.7338L21.4449 79.9455C17.9257 79.9333 14.2595 79.9788 10.7566 79.8936L10.7663 68.5729L21.4061 68.7338Z" fill="#0C9489"/>
</svg>
