<svg xmlns="http://www.w3.org/2000/svg" fill="none" viewBox="0 0 96 96"><path fill="#0890b2" fill-rule="evenodd" d="m74.696 8.11.089 13.247 10.559.153V8.047l10.614-.033L96 34.536l-10.75.201-.003 13.05 10.704.175L96 87.904 85.335 88l-.073-26.731-10.445-.025-.218 13.545-10.515-.05.047 13.205-31.983.053-.125-13.322 32.059.062-.006-13.39a2129 2129 0 0 0-31.968-.003l-.085 13.331-10.484.143-.11-13.516-10.688.014-.032 26.552L0 87.997l.072-40.045 10.905-.075c-.07-4.274-.221-8.912-.167-13.15L.015 34.66.089 8.035h10.624l-.038 13.232 10.722.164L21.426 8zM53.303 47.804l21.425.11-.08-13.21h-21.29zM21.45 47.8l21.266.088-.034-13.185h-21.15z" clip-rule="evenodd"/></svg>