<svg xmlns="http://www.w3.org/2000/svg" fill="none" viewBox="0 0 96 96"><path fill="#cb8a04" fill-rule="evenodd" d="m64.004 15.614.032 10.588 10.51.051.21 10.62 10.507.076.025 42.444L96 79.412l-.055 10.477L74.733 90l-.194-31.967-10.321-.011-.131 21.327-10.666.006-.063-10.68-10.66.062-.091 10.62-10.45.068-.187-21.356-10.434-.025-.051 31.893L0 89.954l.068-10.588 10.758.046.002-42.607 10.617.074.012-10.713 10.53.173.233-10.81 10.418-.037.026 10.693 10.77.074.07-10.801zM32.18 36.894l-.125 10.47 10.632.097-.085-10.58zm21.14 10.462 10.75.052-.045-10.498-10.692-.025z" clip-rule="evenodd"/><path fill="#cb8a04" d="M32.023 5.006c.134 3.378.001 7.088-.053 10.494-3.474-.034-7.07.058-10.555.095l.309-10.593zM74.511 15.515l-10.401-.04.173-10.435L74.651 5z"/></svg>