<svg xmlns="http://www.w3.org/2000/svg" fill="none" viewBox="0 0 96 96"><g fill="#16a24b" clip-path="url(#a)"><path fill-rule="evenodd" d="m59.859 11.896.07 12.072 11.93.006-.047 12.034 12.209-.01-.097-12.047 11.892.059c.342 23.766.1 48.112.114 71.926-7.994.1-16.17.002-24.18-.004l.095-11.934 12.09.038-.101-24.112-11.984.042-.01 12.012-11.96-.052-.047 12.09-23.929-.047-.001-12.072-12.026.048-.086-12.014-11.911.006q-.03 12.072.088 24.144l11.84.033.025 11.758L0 96l.02-72.073 11.752.06.255 12.047 11.898.05-.204 11.701 12.268.122-.058-11.823-12.095-.073.024-12.06 12.08.062q.01-6.123-.075-12.246zm.04 24.124.046 11.867 11.884.036-.017-11.915z" clip-rule="evenodd"/><path d="m71.74.01-.061 11.876L60 11.796c-.156-3.85-.045-7.923-.006-11.796zM35.869.15l-.005 11.618c-3.975.006-8.017.057-11.984.019l.038-11.74z"/></g><defs><clipPath id="a"><path fill="#fff" d="M0 0h96v96H0z"/></clipPath></defs></svg>