<svg width="96" height="86" viewBox="0 0 96 86" fill="none" xmlns="http://www.w3.org/2000/svg">
<path d="M31.8163 0V10.875H7.87914V21.3833H0V53.6751H96V21.3833H87.8207V10.875H64.1837V0H31.8163ZM23.9371 32.6585H39.695V43.1668H23.9371V32.6585ZM56.3033 32.6585H72.0611V43.1668H56.3033V32.6585ZM23.9371 53.6751L23.9119 64.5832H15.7578V75.0915H0V86H16.0332V75.4586H31.791V64.5836H39.9703V53.6751H23.9371ZM39.9703 64.5836L39.9699 75.4582H56.0031V64.5832L39.9703 64.5836ZM56.0031 64.5832H63.907V75.0915H79.9402V64.2165H72.0611V53.6751H56.0031V64.5832ZM79.9402 75.0915V86H95.9982V75.0915H79.9402Z" fill="#EA580C"/>
</svg>
