<svg xmlns="http://www.w3.org/2000/svg" fill="none" viewBox="0 0 96 96"><path fill="#049769" fill-rule="evenodd" d="m67.138 14.167-.002 11.235 9.686.163-.029 11.117 9.556.125c.025 14.907-.094 30.148.108 45.03l9.493.002.05 11.046q-14.407.172-28.815.087l.104-11.259 9.53.099-.035-22.565-9.605-.051-.007 11.296-9.582.021-.138-11.356-18.944.03L38.45 70.3l-9.664.213.004-11.277-9.667.009q-.057 11.273-.001 22.542l9.642.05-.043 11.114L0 92.985l.09-11.26 9.4.138.086-45.116 9.54.026.032-11.3 9.69.025c-.065-3.69.079-7.617.158-11.323l9.37.01.014 11.247 19.209.055.003-11.323zM28.716 36.784l-.018 11.005 9.69.15-.056-11.17zm28.873.011-.078 11.06 9.79.053-.115-11.142z" clip-rule="evenodd"/><path fill="#049769" d="m57.59 70.513-.056 11.212-19.11.062.064-11.327zM76.876 3.036l-.094 11.097-9.644.034L67.344 3zM28.767 3.143l-.14 10.834c-3.054.126-6.423.066-9.506.093l.082-11.05z"/></svg>