<svg xmlns="http://www.w3.org/2000/svg" fill="none" viewBox="0 0 96 96"><path fill="#dd2726" d="M8.81 87.898.074 88l.006-9.886 8.698-.045zM95.97 78.072l.023 9.9-8.652-.025.135-9.89z"/><path fill="#dd2726" fill-rule="evenodd" d="m34.937 8.04-.062 9.775q13.158.133 26.318.085V8.009l8.643.037-.172 9.816 8.86.109.032 21.205.052 8.783 8.757-.02.052-30.01 8.576-.03.007 50.03-8.608-.005-.058 10.015-8.698.15-.01-10.06c-5.793 0-11.694-.07-17.476.023l-.059 10.013-8.56.024-.077-10.072-8.767.011-.026 10.016-8.68.008-.034-10.061-17.331.037-.056 10.037-8.782.005.068-10.143-8.767.056c-.002-16.44-.204-33.625.047-50.006l8.611-.06.09 30.04 8.74.027.022-30.148 8.71.066L26.317 8zm-8.592 30.053-.065 9.857 8.662.053-.006-9.97zm34.87-.038-.063 9.89 8.689.048-.068-9.965z" clip-rule="evenodd"/></svg>