<svg xmlns="http://www.w3.org/2000/svg" fill="none" viewBox="0 0 96 96"><path fill="#65a20d" d="M78.03 95.936 53.887 96l.098-11.948 24.002-.003zM42.01 84.152l.047 11.803-23.969.015.124-11.914z"/><path fill="#65a20d" d="m89.837 84.09-11.851-.04.125-24.186 11.758-.01zM17.979 83.905l-11.896.166.007-24.089 12.027-.013z"/><path fill="#65a20d" fill-rule="evenodd" d="M77.961 11.96 78 23.954l11.906.093L90 47.922l-12.004.148.115 11.794-12.167.086.029 11.995-12.004-.106-.08-11.918-11.74-.022-.185 12.052-11.83.033-.074-11.977-11.943-.038.15-11.89L6 47.99l.09-24.01 12.01.042q.053-6.106.036-12.206zM30.188 47.88 42 48.003l-.045-24.048-11.761-.023zm23.765-23.92.012 24.025 12.122-.1-.072-23.928z" clip-rule="evenodd"/><path fill="#65a20d" d="m89.834 11.835-11.787.04c-.022-3.842.153-7.995.242-11.863L89.936 0zM18.081.098c.006 3.462-.14 8.384.055 11.718l-12.082.045L6.11.055z"/></svg>