<svg width="96" height="96" viewBox="0 0 96 96" fill="none" xmlns="http://www.w3.org/2000/svg">
<path d="M24.1074 83.962C40.0824 84.1307 56.0588 84.175 72.0345 84.0944L72.0672 95.9918L24.162 96L24.1074 83.962Z" fill="#4F46E4"/>
<path fill-rule="evenodd" clip-rule="evenodd" d="M36.0493 0.0397907C43.9785 0.0359439 52.0998 -0.0626652 60.0107 0.06572L59.847 11.8076L83.9913 11.9877L84.0827 24.0831L95.9236 24.0066L96 59.9296L84.0254 59.9392L83.934 84.1298L72.0345 84.0944L72.0372 60.0484L59.9548 60.0224L60.0326 71.9717L36.1257 71.9908L35.8815 59.9842L24.192 59.9515L24.1074 83.962L12.0769 84.1285L12.0032 59.9542L0 60.0211L0.0122788 24.0203L12.021 24.0681L12.1438 11.9509L36.0452 11.8922L36.0493 0.0397907ZM59.9685 36.0965L59.9794 47.9148L83.9804 48.0513L83.8467 36.0269L59.9685 36.0965ZM11.976 47.8916L36.0165 47.9912L35.9374 36.1306H11.9773L11.976 47.8916Z" fill="#4F46E4"/>
</svg>
