<svg xmlns="http://www.w3.org/2000/svg" fill="none" viewBox="0 0 96 96"><path fill="#d97606" fill-rule="evenodd" d="m63.999 19.722.071 11.19 10.527.153.181 11.202 10.513.065-.01-11.288 10.656-.1.057 22.717-10.706.085.034 22.877L96 76.61l-.028 11.256L74.75 88l-.232-22.917-10.317-.012-.159 11.536-10.709-.003.02-11.5-10.64.034-.06 11.432-10.382.183-.352-11.676-10.365.006-.082 22.826L0 87.95l.057-11.366 10.746.046-.037-22.914-10.689.034.028-22.757 10.658-.04-.088 11.206 10.828.097-.031-11.375 10.51.194.175-11.503 10.493-.065.014 11.418 10.8.078-.049-11.51zm-31.836 22.68-.048 11.214 10.586.096-.09-11.378zM53.296 53.6l10.763.084.014-11.284-10.709-.055z" clip-rule="evenodd"/><path fill="#d97606" d="m53.333 76.604.009 11.235c-3.455.113-7.248.022-10.732.019l.043-11.288zM31.93 8c.15 3.69.043 7.676.006 11.39l-10.496.187.29-11.533zM74.478 19.496l-10.442-.157.341-11.288 10.223-.03z"/></svg>